<?xml version="1.0" encoding="UTF-8"?><svg id="Ebene_2" xmlns="http://www.w3.org/2000/svg" xmlns:xlink="http://www.w3.org/1999/xlink" viewBox="0 0 30.31 23.43"><defs><style>.cls-1{clip-path:url(#clippath);}.cls-2{fill:none;}.cls-2,.cls-3,.cls-4{stroke-width:0px;}.cls-3{fill:#fa8200;}.cls-4{fill:#007dba;}</style><clipPath id="clippath"><rect class="cls-2" width="30.31" height="23.43"/></clipPath></defs><g id="Ebene_5"><g class="cls-1"><path class="cls-4" d="M28.98,4.34l1.07-3.02h.02c-.02.32-.03.52-.03.62v2.4h.27V1.02h-.41l-.9,2.55c-.1.27-.15.46-.17.57h-.02c-.02-.16-.08-.35-.16-.57l-.91-2.54h-.4v3.32h.26V1.92c0-.09,0-.29-.03-.6h.02l1.07,3.03h.31ZM26.05,1.23h.8v-.21h-1.88v.21h.8v3.11h.27V1.23Z"/><path class="cls-4" d="M14.71,15.11c.36.12.51.16.8.19.31.03.51.16.68.4.55.73.99,1.52,1.19,2.42.17.76.1,1.49-.31,2.2-.56.97-.3,2.09.61,2.76.78.58,1.94.44,2.67-.32.69-.72.75-1.87.13-2.67-.31-.4-.72-.63-1.2-.77-.23-.07-.49-.21-.64-.39-.68-.85-1.15-1.81-1.36-2.89-.12-.62-.08-1.21.24-1.79.48-.88.29-1.88-.39-2.51-.65-.59-1.65-.69-2.41-.23-.77.46-1.18,1.43-.95,2.3.13.52.36.91.81,1.24"/><path class="cls-4" d="M11.39,7.53s0-.08,0-.12c0,0,0,0,0-.01-.05-.59-.37-1.14-.93-1.44-.95-.5-2.02-.24-2.52.7-.32.61-.8.96-1.41,1.18-.88.32-1.79.47-2.72.36-.22-.02-.45-.15-.62-.3-.81-.71-2-.68-2.7.1-.7.78-.63,1.97.17,2.65.93.8,2.36.55,2.91-.57.42-.84,1.1-1.3,1.95-1.48.65-.14,1.33-.13,1.99-.17.19.01.26.02.44.13.1.1.2.19.24.25.25.41.33.62.3,1.03-.06.79-.21,1.56-.58,2.26-.31.58-.74,1.02-1.37,1.25-.95.35-1.45,1.43-1.1,2.39.35.97,1.4,1.46,2.38,1.1,1.21-.43,1.6-1.84.84-2.91-.15-.21-.24-.5-.25-.76,0-.91.21-1.78.6-2.61.29-.6.69-1.06,1.35-1.32.64-.24,1.02-.91,1.04-1.62,0-.04,0-.07,0-.11"/><path class="cls-4" d="M15.27,6.27c-.11-.03-.24-.04-.39-.04-.56.05-.79-.12-1.1-.4-.74-.65-1.43-1.35-1.76-2.3-.14-.4-.17-.87-.11-1.29.11-.81-.19-1.6-.87-1.99-.72-.41-1.6-.31-2.19.23-.59.54-.77,1.41-.44,2.12.33.74,1.1,1.2,1.92,1.07.37-.06.63.03.9.24.63.5,1.2,1.06,1.58,1.77.33.61.44,1.25.27,1.94-.27,1.03.37,2.01,1.44,2.27.94.23,1.95-.38,2.2-1.34.26-.99-.32-1.97-1.44-2.29"/><path class="cls-4" d="M20.1,15.16c.94.27,1.84-.23,2.11-1.16.27-.93-.24-1.84-1.17-2.11-.9-.25-1.83.26-2.09,1.15-.27.92.24,1.85,1.16,2.12"/><path class="cls-4" d="M3.84,5.81c1.09.31,2.23-.31,2.55-1.39.33-1.11-.32-2.27-1.46-2.59-1.07-.3-2.22.33-2.52,1.38-.33,1.12.31,2.29,1.43,2.6"/><path class="cls-4" d="M15.82,4.55c.9.25,1.84-.26,2.1-1.15.27-.92-.27-1.87-1.2-2.14-.88-.24-1.83.27-2.08,1.14-.27.93.26,1.89,1.18,2.15"/><path class="cls-3" d="M23.76,5.43c-2.77,1.9-3.39,1.85-5.75-.45-.05-.05-.14.02-.09.08,1.85,2.72,1.79,3.35-.56,5.74-.05.05.02.14.08.09,2.76-1.9,3.39-1.85,5.75.45.05.05.14-.02.09-.08-1.85-2.72-1.79-3.35.56-5.74.05-.05-.02-.14-.08-.09"/><path class="cls-4" d="M12.49,12.62c-.12.63-.65.99-1.29.86-.6-.12-.94-.64-.83-1.26.11-.6.64-.98,1.24-.88.61.1,1,.66.88,1.28"/></g></g></svg>