<?xml version="1.0" encoding="UTF-8"?><svg id="Ebene_2" xmlns="http://www.w3.org/2000/svg" xmlns:xlink="http://www.w3.org/1999/xlink" viewBox="0 0 24.18 24.17"><defs><style>.cls-1{clip-path:url(#clippath);}.cls-2{stroke-width:0px;}.cls-2,.cls-3{fill:none;}.cls-3{stroke:#007dba;stroke-miterlimit:10;stroke-width:.8px;}</style><clipPath id="clippath"><rect class="cls-2" width="24.18" height="24.17"/></clipPath></defs><g id="Ebene_7"><g class="cls-1"><path class="cls-3" d="M12.37,10.36c0-1.11-.9-2.01-2.02-2.01s-2.01.9-2.01,2.01.9,2.01,2.01,2.01,2.02-.9,2.02-2.01ZM1.48,7.86L7.87,1.48M18.89,21.74c.26.26.58.43.9.52l3.75,1.28-1.28-3.74c-.09-.33-.27-.64-.53-.9-.78-.79-2.06-.79-2.84,0-.79.79-.79,2.06,0,2.84ZM13.2,4.67c1.16,1.15,2.54,2.99,3.76,4.78,1.84,2.63,3.36,5.18,3.36,5.18l-5.69,5.69s-2.55-1.52-5.18-3.36c-1.79-1.22-3.63-2.6-4.78-3.76C1.42,9.94.4,5.07.4.4c2.33,0,4.72.26,6.94.91,2.19.65,4.25,1.74,5.86,3.36ZM9.45,16.96c-1.52,1.52-1.24,4.06.57,5.23.67.43,1.24.79,1.67,1.06l2.94-2.93M20.32,14.62l2.92-2.93c-.27-.44-.63-1.02-1.06-1.68-1.16-1.81-3.71-2.09-5.23-.57"/></g></g></svg>