<?xml version="1.0" encoding="UTF-8"?>
<svg id="Ebene_2" data-name="Ebene 2" xmlns="http://www.w3.org/2000/svg" xmlns:xlink="http://www.w3.org/1999/xlink" viewBox="0 0 21.33 23.44">
  <defs>
    <style>
      .cls-1 {
        clip-path: url(#clippath);
      }

      .cls-2, .cls-3 {
        fill: none;
      }

      .cls-2, .cls-4 {
        stroke-width: 0px;
      }

      .cls-3 {
        stroke: #017ebb;
        stroke-linecap: round;
        stroke-linejoin: round;
        stroke-width: .82px;
      }

      .cls-4 {
        fill: #017ebb;
      }
    </style>
    <clipPath id="clippath">
      <rect class="cls-2" x="0" width="21.33" height="23.44"/>
    </clipPath>
  </defs>
  <g id="Ebene_1-2" data-name="Ebene 1">
    <g class="cls-1">
      <path class="cls-4" d="m17.26.41h3.66v13.32h-3.66V.41Zm0,12.6s-3.3,1.01-4.74,7.97c-.91,4.37-3.85.64-3.71-1.02.13-1.59,1.02-3.29.5-5.74-.34-1.61-5.75.11-7.55-.81-2.2-1.12.18-3.27,1.68-3.04,0,0-3.09.32-3.02-1.51.06-1.82,2.81-1.67,2.81-1.67,0,0-2.35-.3-2.34-1.75,0-1.13,1.32-1.83,2.66-1.67,0,0-2.01,0-1.97-1.18.04-1.13,1.45-3.17,15.7-1.17"/>
      <path class="cls-3" d="m17.26.41h3.66v13.32h-3.66V.41Zm0,12.6s-3.3,1.01-4.74,7.97c-.91,4.37-3.85.64-3.71-1.02.13-1.59,1.02-3.29.5-5.74-.34-1.61-5.75.11-7.55-.81-2.2-1.12.18-3.27,1.68-3.04,0,0-3.09.32-3.02-1.51.06-1.82,2.81-1.67,2.81-1.67,0,0-2.35-.3-2.34-1.75,0-1.13,1.32-1.83,2.66-1.67,0,0-2.01,0-1.97-1.18.04-1.13,1.45-3.17,15.7-1.17"/>
    </g>
  </g>
</svg>