<?xml version="1.0" encoding="UTF-8"?><svg id="Ebene_2" xmlns="http://www.w3.org/2000/svg" xmlns:xlink="http://www.w3.org/1999/xlink" viewBox="0 0 12.88 16.27"><defs><style>.cls-1{clip-path:url(#clippath);}.cls-2{fill:none;}.cls-2,.cls-3{stroke-width:0px;}.cls-3{fill:#007dba;}</style><clipPath id="clippath"><rect class="cls-2" width="12.88" height="16.27"/></clipPath></defs><g id="Ebene_3"><g class="cls-1"><path class="cls-3" d="M2.25.6h8.37c.1.69.32,2.81-.5,3.9-.89,1.18-3.06,2.8-3.69,3.25-.63-.46-2.8-2.07-3.69-3.25-.82-1.09-.6-3.2-.5-3.9M6.44,8.5c.63.46,2.8,2.07,3.69,3.25.83,1.1.6,3.25.5,3.92H2.26c-.1-.67-.33-2.82.5-3.92.89-1.18,3.06-2.8,3.69-3.25M12.88.3C12.88.14,12.74,0,12.58,0H.3C.13,0,0,.14,0,.3s.13.3.3.3h1.34c-.12.84-.31,3.02.63,4.26.89,1.18,2.87,2.69,3.65,3.26-.78.57-2.77,2.08-3.65,3.26-.94,1.25-.74,3.46-.62,4.28H.3C.13,15.67,0,15.8,0,15.97s.13.3.3.3h12.28c.17,0,.3-.14.3-.3s-.14-.3-.3-.3h-1.35c.12-.82.32-3.03-.62-4.28-.89-1.18-2.87-2.69-3.66-3.26.78-.57,2.76-2.08,3.66-3.26.94-1.24.74-3.42.63-4.26h1.34c.17,0,.3-.14.3-.3"/></g></g></svg>