<?xml version="1.0" encoding="UTF-8"?><svg id="Ebene_2" xmlns="http://www.w3.org/2000/svg" xmlns:xlink="http://www.w3.org/1999/xlink" viewBox="0 0 24.16 23.82"><defs><style>.cls-1{clip-path:url(#clippath);}.cls-2{stroke-width:0px;}.cls-2,.cls-3{fill:none;}.cls-3{stroke:#007dba;stroke-linecap:round;stroke-linejoin:round;stroke-width:.6px;}</style><clipPath id="clippath"><rect class="cls-2" width="24.16" height="23.82"/></clipPath></defs><g id="Ebene_3"><g class="cls-1"><path class="cls-3" d="M19.1,20.65c-4.56,4.11-11.58,3.76-15.7-.8M2.72,23.01l.69-3.16,3.21-.36"/><path class="cls-3" d="M9.23,15.07v2.09H.3v-2.09c0-1.52,2-2.75,4.46-2.75s4.47,1.23,4.47,2.75ZM7.52,8.28c0,1.52-1.23,2.75-2.75,2.75s-2.75-1.23-2.75-2.75,1.23-2.75,2.75-2.75,2.75,1.23,2.75,2.75Z"/><path class="cls-3" d="M23.86,12.09c0-.24-.01-.48-.05-.72-.4-.08-.81-.13-1.21-.15-.18-.01-.33-.12-.38-.27,0,0,0,0,0-.02,0-.01,0-.03-.01-.04-.01-.04-.03-.08-.05-.13-.01-.05-.04-.1-.05-.13-.01-.04-.02-.06-.02-.06-.02-.06-.06-.12-.08-.19-.03-.06-.06-.12-.09-.18-.04-.07-.05-.15-.04-.23.01-.08.05-.16.11-.23.14-.15.26-.3.39-.46.12-.16.25-.33.36-.5-.15-.19-.31-.37-.48-.55M22.26,8.22c-.17-.17-.35-.33-.55-.48-.17.11-.34.23-.5.36-.16.12-.31.25-.47.39-.07.06-.15.1-.23.11-.08.01-.16,0-.23-.04,0,0-.09-.05-.18-.09-.05-.02-.09-.04-.13-.06-.03-.02-.06-.03-.06-.03-.13-.05-.25-.1-.39-.14-.15-.05-.26-.19-.27-.38-.02-.4-.07-.81-.15-1.21-.24-.03-.48-.04-.72-.05M18.39,6.62c-.24,0-.48.01-.72.05-.08.4-.13.81-.15,1.21-.01.18-.12.33-.28.38,0,0,0,0-.02,0-.01,0-.03,0-.04.01-.04.01-.09.03-.13.05-.05.02-.09.04-.13.05-.04.01-.06.02-.06.02-.06.03-.12.06-.19.08-.06.03-.12.06-.18.09-.07.04-.15.05-.23.04-.08-.01-.16-.05-.23-.11-.15-.14-.3-.26-.46-.39-.16-.12-.33-.25-.49-.36-.19.15-.37.31-.55.48M14.51,8.22c-.17.17-.33.35-.48.55.11.17.23.34.36.5.12.16.25.31.39.46.06.07.1.15.11.23.01.08,0,.16-.04.23,0,0-.05.09-.09.18-.02.05-.04.09-.06.13-.02.03-.02.06-.02.06-.05.13-.1.25-.14.39-.05.15-.19.26-.38.27-.4.02-.81.07-1.2.15-.03.24-.05.48-.05.72M12.91,12.09c0,.24.01.48.05.72.4.08.81.13,1.2.15.19.01.33.12.38.27,0,0,0,0,0,.02,0,.01,0,.03.01.04.01.04.03.09.05.13.01.05.04.1.05.13.01.03.02.06.02.06.03.06.06.12.08.19.03.06.06.12.09.18.04.07.05.15.04.23-.01.08-.05.16-.11.23-.14.15-.26.3-.39.46-.12.16-.25.33-.36.5.15.19.31.37.48.55M14.51,15.96c.17.17.35.33.55.48.17-.11.34-.24.49-.36.16-.12.31-.25.46-.39.07-.06.15-.1.23-.11.08-.01.16,0,.23.04,0,0,.09.05.18.09.05.02.09.04.13.06s.06.02.06.02c.13.05.26.1.39.14.15.05.26.19.28.38.02.4.07.81.15,1.21.24.03.48.04.72.05M18.39,17.57c.24,0,.48-.01.72-.05.08-.4.13-.81.15-1.21.01-.18.12-.33.27-.38,0,0,0,0,.02,0,.01,0,.03,0,.05-.01.04-.01.08-.03.13-.04.05-.02.1-.04.13-.05.04-.01.06-.02.06-.02.06-.02.12-.06.19-.08.06-.03.12-.06.18-.09.07-.04.15-.05.23-.04.08.01.16.05.23.11.15.13.3.26.47.39.16.12.33.25.5.36.19-.15.37-.31.55-.48M22.26,15.96c.17-.17.33-.35.48-.55-.11-.17-.23-.34-.36-.5-.12-.16-.25-.31-.39-.46-.06-.07-.1-.15-.11-.23-.01-.08,0-.16.04-.23,0,0,.05-.09.09-.18.02-.05.04-.09.06-.13.02-.03.02-.06.02-.06.05-.13.1-.25.14-.39.05-.15.19-.26.38-.27.4-.02.81-.07,1.21-.15.03-.24.05-.48.05-.72M21.27,12.09c0,1.59-1.29,2.88-2.88,2.88s-2.88-1.29-2.88-2.88,1.29-2.88,2.88-2.88,2.88,1.29,2.88,2.88Z"/><path class="cls-3" d="M3.47,3.17C8.02-.95,15.05-.59,19.16,3.96M19.85.81l-.69,3.16-3.21.36"/></g></g></svg>