<?xml version="1.0" encoding="UTF-8"?><svg id="Ebene_2" xmlns="http://www.w3.org/2000/svg" xmlns:xlink="http://www.w3.org/1999/xlink" viewBox="0 0 23.94 23.94"><defs><style>.cls-1{clip-path:url(#clippath);}.cls-2{stroke-width:0px;}.cls-2,.cls-3{fill:none;}.cls-3{stroke:#007dba;stroke-linecap:round;stroke-linejoin:round;stroke-width:.77px;}</style><clipPath id="clippath"><rect class="cls-2" width="23.94" height="23.94"/></clipPath></defs><g id="Ebene_6"><g class="cls-1"><path class="cls-3" d="M11.97,14.08c-1.16,0-2.11-.94-2.11-2.11s.94-2.11,2.11-2.11,2.1.94,2.1,2.11-.94,2.11-2.1,2.11M19,19l-5.54-5.54M10.48,10.48l-5.54-5.54M4.94,19l5.54-5.54M13.46,10.48l5.54-5.54M11.97,23.55v-9.48M11.97,9.86V.39M.39,11.97h9.48M14.07,11.97h9.48M21.97,14.94l-2.97-2.97,2.97-2.97M9,21.97l2.97-2.97,2.97,2.97M1.97,9l2.97,2.97-2.97,2.97M14.94,1.97l-2.97,2.97-2.97-2.97"/></g></g></svg>