<svg width="24" height="24" viewBox="0 0 1000 1000" xmlns="http://www.w3.org/2000/svg"><path d="M 275 300C 316 300 350 334 350 375 350 416 316 450 275 450 234 450 200 416 200 375 200 334 234 300 275 300ZM 150 225C 136 225 125 236 125 250 125 388 125 526 125 665 177 612 230 560 282 507 285 504 289 502 294 501 302 499 311 501 318 507 360 550 403 592 445 635 524 551 603 467 682 383 687 378 694 375 701 375 703 375 704 375 706 376 711 377 715 379 718 382 770 435 823 487 875 540 875 443 875 347 875 250 875 236 864 225 850 225 617 225 383 225 150 225ZM 150 175C 383 175 617 175 850 175 891 175 925 209 925 250 925 417 925 583 925 750 925 791 891 825 850 825 617 825 383 825 150 825 109 825 75 791 75 750 75 583 75 417 75 250 75 209 109 175 150 175Z"/></svg>