<?xml version="1.0" encoding="UTF-8"?><svg id="Ebene_2" xmlns="http://www.w3.org/2000/svg" xmlns:xlink="http://www.w3.org/1999/xlink" viewBox="0 0 20.22 23.14"><defs><style>.cls-1{clip-path:url(#clippath);}.cls-2{stroke-width:0px;}.cls-2,.cls-3{fill:none;}.cls-3{stroke:#007dba;stroke-linecap:round;stroke-linejoin:round;stroke-width:.9px;}</style><clipPath id="clippath"><rect class="cls-2" width="20.22" height="23.14"/></clipPath></defs><g id="Ebene_1-2"><g class="cls-1"><path class="cls-3" d="M5.36,12.94l9.5,5.73M5.36,10.2l9.5-5.73M19.77,20.04c0,1.46-1.18,2.65-2.65,2.65s-2.65-1.19-2.65-2.65,1.19-2.65,2.65-2.65,2.65,1.19,2.65,2.65ZM19.77,3.1c0,1.46-1.18,2.65-2.65,2.65s-2.65-1.19-2.65-2.65,1.19-2.65,2.65-2.65,2.65,1.19,2.65,2.65ZM5.74,11.57c0,1.46-1.18,2.65-2.65,2.65S.45,13.03.45,11.57s1.18-2.65,2.65-2.65,2.65,1.18,2.65,2.65Z"/></g></g></svg>